<svg width="149" height="46" viewBox="0 0 149 46" fill="none" xmlns="http://www.w3.org/2000/svg">
<path d="M13.5103 40.7407C13.5103 37.6153 15.8314 35.4814 18.7825 35.4814C20.5967 35.4814 21.8568 36.3501 22.6713 37.4931L21.5949 38.088C21.0113 37.234 19.9504 36.6091 18.7825 36.6091C16.5382 36.6091 14.8324 38.3163 14.8324 40.7407C14.8324 43.1497 16.5382 44.8723 18.7825 44.8723C19.9504 44.8723 21.0113 44.2628 21.5949 43.3934L22.6868 43.9876C21.8258 45.1467 20.5967 46 18.7825 46C15.8314 46 13.5103 43.8661 13.5103 40.7407Z" fill="white"/>
<path d="M38.8817 36.9609L36.6993 42.4339H41.0485L38.8817 36.9609ZM42.3396 45.8184L41.4329 43.5623H36.3297L35.423 45.8184H33.9629L38.0827 35.6496H39.6652L43.8004 45.8184H42.3396Z" fill="white"/>
<path d="M61.9006 38.7143C61.9006 37.5712 61.0706 36.778 59.8562 36.778H57.167V40.6506H59.8562C61.0706 40.6506 61.9006 39.8573 61.9006 38.7143ZM55.8906 45.8184V35.6496H60.0104C62.0695 35.6496 63.2227 37.0524 63.2227 38.7143C63.2227 40.3761 62.0385 41.7782 60.0104 41.7782H57.167V45.8184H55.8906Z" fill="white"/>
<path d="M75.6666 35.6467H76.943V45.8154H75.6666V35.6467Z" fill="white"/>
<path d="M92.6319 45.8184V36.778H89.3887V35.6496H97.1663V36.778H93.9076V45.8184H92.6319Z" fill="white"/>
<path d="M112.44 36.9609L110.257 42.4339H114.607L112.44 36.9609ZM115.898 45.8184L114.991 43.5623H109.888L108.982 45.8184H107.521L111.641 35.6496H113.224L117.359 45.8184H115.898Z" fill="white"/>
<path d="M129.449 45.8184V35.6496H130.725V44.69H135.49V45.8184H129.449Z" fill="white"/>
<path d="M91.605 21.1318H96.1394V0.0010498H91.605V21.1318Z" fill="white"/>
<path d="M0 21.1318H4.53585V12.3315H0V21.1318Z" fill="white"/>
<path d="M14.5335 13.2755L4.6635 0.00105538H0V1.22459L4.53587 7.37444V7.35102L14.6929 21.1318H19.0686V0.00105538H14.5335V13.2755Z" fill="white"/>
<path d="M57.9077 21.1318H62.4428V12.3315H57.9077V21.1318Z" fill="white"/>
<path d="M69.4376 12.7684L64.2628 0.00105538H59.8774L66.0091 15.124L68.4475 21.1318H70.4269L76.4332 6.33751V21.1318H81.0001V0.00105538H74.6124L69.4376 12.7684Z" fill="white"/>
<path d="M36.8466 0.00105538L41.8104 13.5916H35.1667H30.3453L27.4053 21.1318H32.5786L33.9213 17.552H43.0558L44.3653 21.1318H49.5394L41.3309 0.00105538H36.8466Z" fill="white"/>
<path d="M111.279 12.3886H121.595V8.42819H111.279V8.41722H106.744V21.1318H121.818V17.1722H111.279V12.3886Z" fill="white"/>
<path d="M106.744 3.95337H118.55V3.95996H121.819V0.000317946H106.744V3.95337Z" fill="white"/>
<path d="M144.209 13.0852C146.508 12.5466 148.872 10.5511 148.872 6.81243C148.872 2.88425 146.157 0.00105538 141.717 0.00105538H131.751V3.96143H136.288H137.82H141.047C142.868 3.96143 144.241 5.03787 144.241 6.81243C144.241 8.58626 142.868 9.66416 141.047 9.66416H137.82H136.288H131.751V21.1318H136.288V13.6238H139.61L143.794 21.1318H149L144.209 13.0852Z" fill="white"/>
</svg>
